<?xml version="1.0" encoding="UTF-8"?><svg id="Laag_1" xmlns="http://www.w3.org/2000/svg" viewBox="0 0 89.71 89.73"><path d="M61.96,67.12c-20.66,15.62-44.22,6.8-53.78-5.84C-3.74,45.51-2.35,25.3,10.48,11.75,23.03-1.5,43.77-4.17,59.62,6.96c8.86,6.22,14.08,14.94,15.54,25.73,1.46,10.77-1.47,20.42-8.14,29.07,6.42,6.42,12.67,12.64,18.88,18.89,1.05,1.06,1.91,2.3,2.91,3.41,1.44,1.59,1.01,3.06-.28,4.4-1.29,1.34-2.74,1.85-4.36,.4-1.18-1.05-2.5-1.94-3.61-3.05-6.19-6.17-12.34-12.39-18.6-18.69ZM7.66,38.01c.01,16.61,13.28,29.95,29.91,30.05,16.62,.1,30.41-13.56,30.49-30.2,.08-16.67-13.49-30.17-30.33-30.2-16.84-.03-30.08,13.34-30.07,30.35Z"/></svg>