<?xml version="1.0" encoding="UTF-8"?><svg id="Laag_1" xmlns="http://www.w3.org/2000/svg" viewBox="0 0 89.31 100.08"><path d="M21.66,22.13c1.39-3.81,2.33-7.46,3.98-10.76,7.47-14.95,27.36-14.03,35.2-3.75,2.78,3.64,4.53,7.75,5.36,12.21,.35,1.9,1.17,2.43,2.99,2.34,2.83-.14,5.66-.06,8.49-.03,4.23,.04,4.87,.52,5.41,4.77,.66,5.2,1.11,10.42,1.68,15.63,1.44,13.23,2.75,26.48,4.41,39.68,1.18,9.47-5.46,17.54-16.08,17.7-19.48,.3-38.98,.2-58.46-.17-9.44-.18-15.55-8.12-14.52-17.43,1.8-16.37,3.48-32.76,5.23-49.14,.26-2.4,.59-4.79,.9-7.18,.41-3.16,1.08-3.8,4.34-3.85,3.82-.06,7.64-.01,11.08-.01Zm.7,6.44c-2.75,0-5.17,.17-7.56-.05-2.41-.22-2.87,.87-3.08,2.99-.99,10.19-2.16,20.36-3.23,30.54-.78,7.45-1.64,14.89-2.22,22.36-.33,4.25,1.7,7.13,5.81,8.15,2.95,.73,6.07,1.01,9.12,1.03,16.83,.13,33.66,.2,50.49,.13,8.36-.03,11.85-4.5,10.88-12.67-1.75-14.71-3.23-29.45-4.82-44.18-.29-2.69-.61-5.37-.91-7.98h-10.24c0,2.96,.04,5.78-.01,8.59-.04,1.91-.72,3.56-2.91,3.69-2.23,.14-3.01-1.54-3.28-3.37-.2-1.39-.11-2.82-.12-4.24-.02-1.55,0-3.11,0-4.64H28.74c0,1.17,.04,2.16,0,3.15-.11,2.23-.02,4.52-.5,6.67-.21,.95-1.51,2.01-2.52,2.31-.72,.21-2.09-.56-2.63-1.29-.57-.79-.66-2.04-.69-3.09-.09-2.57-.03-5.14-.03-8.1Zm6.7-6.65h31.07c.19-8.06-7.05-15.5-15.17-15.62-8.68-.13-16.25,7.1-15.9,15.62Z"/></svg>